<svg width="323" height="88" viewBox="0 0 323 88" fill="none" xmlns="http://www.w3.org/2000/svg">
<g clip-path="url(#clip0_142_75)">
<path fill-rule="evenodd" clip-rule="evenodd" d="M36.3927 18.3467C42.0805 32.6921 32.7732 41.9142 23.515 51.1118C14.8479 60.5535 7.31334 70.3367 22.5548 88.0001C16.8669 73.6791 26.1743 64.4326 35.4078 55.2105C44.0257 45.7689 51.6341 35.9857 36.3681 18.3223" fill="white"/>
<path fill-rule="evenodd" clip-rule="evenodd" d="M22.5542 0C28.2913 14.321 18.9839 23.5675 9.67656 32.7652C1.05863 42.2068 -6.54977 51.99 8.76552 69.6535C3.02844 55.2592 12.3358 46.0859 21.5693 36.8883C30.2365 27.3978 37.8449 17.5902 22.5296 0" fill="white"/>
<path fill-rule="evenodd" clip-rule="evenodd" d="M257.085 56.8691V86.1699H270.061V75.4597H284.293V69.0432H270.061V63.2368H298.279V86.1699H311.255V63.2368H323V56.8691H257.085Z" fill="white"/>
<path fill-rule="evenodd" clip-rule="evenodd" d="M229.262 79.8267V74.7277H246.177V68.2869H229.262V63.2368H250.979V56.8691H216.31V86.1699H251.225V79.8267H229.262Z" fill="white"/>
<path fill-rule="evenodd" clip-rule="evenodd" d="M92.5319 56.8691H56.6321V63.2368H68.1309V86.1699H81.0331V63.2368H92.5319V56.8691Z" fill="white"/>
<path fill-rule="evenodd" clip-rule="evenodd" d="M118.164 56.8691H108.217V63.9931L108.389 63.7247L114.126 75.0449H108.217V81.1685H117.302L119.962 86.1699H134.317L118.164 56.8691ZM108.217 56.8691H104.228L88.0752 86.1699H96.5208L99.18 81.1685H108.217V75.0449H102.356L108.217 63.9687V56.8447V56.8691Z" fill="white"/>
<path fill-rule="evenodd" clip-rule="evenodd" d="M200.354 56.8691V71.5073L179.622 56.8691H169.576V86.1699H178.44V70.0191L199.764 86.1699H209.219V56.8691H200.354Z" fill="white"/>
<path fill-rule="evenodd" clip-rule="evenodd" d="M165.144 56.8691H130.057V63.2368H141.556V86.1699H154.458V63.2368H165.144V56.8691Z" fill="white"/>
</g>
<defs>
<clipPath id="clip0_142_75">
<rect width="323" height="88" fill="white"/>
</clipPath>
</defs>
</svg>
