<svg width="30" height="30" viewBox="0 0 30 30" fill="none" xmlns="http://www.w3.org/2000/svg">
<g clip-path="url(#clip0_158_244)">
<path d="M19.3947 0.996092C19.7522 1.23158 19.9098 1.47437 20.0136 1.88945C20.0455 2.09012 20.0475 2.28708 20.047 2.48966C20.0471 2.53355 20.0472 2.57744 20.0473 2.62265C20.0477 2.77019 20.0476 2.91773 20.0475 3.06527C20.0476 3.17193 20.0478 3.27859 20.048 3.38526C20.0485 3.67875 20.0486 3.97224 20.0486 4.26573C20.0488 4.58211 20.0492 4.89849 20.0496 5.21488C20.0504 5.90686 20.0507 6.59885 20.051 7.29084C20.0512 7.72285 20.0514 8.15487 20.0517 8.58688C20.0524 9.78282 20.053 10.9788 20.0532 12.1747C20.0532 12.2895 20.0532 12.2895 20.0532 12.4067C20.0532 12.4834 20.0533 12.5601 20.0533 12.6392C20.0533 12.7947 20.0533 12.9502 20.0533 13.1057C20.0534 13.2214 20.0534 13.2214 20.0534 13.3394C20.0536 14.5894 20.0546 15.8393 20.056 17.0893C20.0574 18.3723 20.0581 19.6554 20.0582 20.9385C20.0582 21.659 20.0586 22.3794 20.0596 23.0999C20.0605 23.7134 20.0608 24.3269 20.0604 24.9404C20.0601 25.2534 20.0602 25.5664 20.061 25.8794C20.0618 26.1661 20.0617 26.4527 20.061 26.7394C20.0609 26.843 20.061 26.9465 20.0616 27.0501C20.0677 28.3767 20.0677 28.3767 19.6065 28.8631C19.2834 29.144 18.9302 29.2069 18.5158 29.1797C18.1087 29.0838 17.7856 28.8927 17.4428 28.6597C17.3393 28.5908 17.2358 28.522 17.1322 28.4532C17.0798 28.4181 17.0275 28.383 16.9735 28.3468C16.7274 28.1827 16.479 28.0221 16.2307 27.8613C16.133 27.7979 16.0353 27.7344 15.9377 27.6709C15.8894 27.6395 15.841 27.6081 15.7912 27.5757C14.1799 26.5283 14.1799 26.5283 14.0334 26.4331C13.9359 26.3697 13.8383 26.3063 13.7408 26.2429C13.4945 26.0828 13.2481 25.9227 13.0018 25.7625C12.5452 25.4655 12.0885 25.1688 11.6311 24.873C11.2239 24.6098 10.8172 24.3459 10.4108 24.0814C10.1564 23.9159 9.9018 23.7506 9.64689 23.5858C9.36043 23.4005 9.07458 23.2144 8.78927 23.0273C8.72748 22.9869 8.6657 22.9465 8.60204 22.9049C8.10001 22.5664 7.75325 22.2246 7.47823 21.6833C7.45866 21.6449 7.43909 21.6065 7.41892 21.5669C7.20632 21.1239 7.1308 20.6819 7.13337 20.1934C7.13314 20.147 7.13292 20.1006 7.13269 20.0528C7.13209 19.899 7.13231 19.7452 7.13255 19.5914C7.13229 19.4805 7.13199 19.3696 7.13164 19.2586C7.13086 18.9584 7.13082 18.6582 7.13097 18.3579C7.13103 18.1067 7.13075 17.8556 7.13047 17.6044C7.12982 17.0116 7.12979 16.4187 7.13014 15.8258C7.1305 15.2155 7.12978 14.6051 7.12853 13.9947C7.12749 13.4696 7.12715 12.9444 7.12734 12.4193C7.12744 12.1061 7.12729 11.7929 7.12647 11.4798C7.12573 11.1851 7.12585 10.8904 7.12661 10.5958C7.12675 10.4881 7.1266 10.3804 7.12611 10.2727C7.12182 9.24749 7.25977 8.34445 7.9836 7.55493C8.32244 7.23838 8.7105 7.00673 9.10512 6.7662C9.45384 6.5527 9.79301 6.32557 10.1322 6.09746C10.619 5.77017 11.1067 5.44556 11.6062 5.13798C12.1218 4.8197 12.6266 4.48438 13.1335 4.15252C13.388 3.98609 13.6429 3.8204 13.8979 3.65478C13.9455 3.62383 13.9932 3.59288 14.0423 3.56099C14.1379 3.49884 14.2336 3.43671 14.3292 3.37458C14.5235 3.24836 14.7177 3.1221 14.912 2.99583C15.0583 2.90069 15.2047 2.80555 15.3511 2.71042C15.5985 2.54959 15.8459 2.38871 16.0933 2.22781C16.2397 2.13264 16.3861 2.03758 16.5326 1.94252C16.7204 1.82052 16.9079 1.69795 17.0952 1.57493C17.1396 1.54586 17.184 1.51679 17.2298 1.48684C17.3123 1.43286 17.3947 1.37869 17.477 1.32428C18.0918 0.923119 18.6827 0.623972 19.3947 0.996092ZM18.0674 2.92396C18.0094 2.96114 17.9513 2.99831 17.8915 3.03662C17.828 3.07746 17.7646 3.11831 17.6992 3.1604C17.6331 3.20285 17.5669 3.24529 17.5008 3.28773C16.8407 3.71192 16.1843 4.14195 15.528 4.57211C15.267 4.74298 15.0055 4.91308 14.7439 5.08301C14.6969 5.11354 14.6498 5.14406 14.6014 5.17552C14.5079 5.23628 14.4143 5.29703 14.3207 5.35778C14.0784 5.51512 13.8362 5.67261 13.594 5.83008C13.4965 5.8934 13.3991 5.95673 13.3017 6.02005C13.1041 6.1485 12.9065 6.27698 12.7089 6.40549C12.2522 6.70243 11.7955 6.99915 11.3381 7.29492C11.2576 7.34703 11.1771 7.39914 11.0966 7.45125C10.9093 7.57252 10.7217 7.69342 10.534 7.81425C10.4297 7.88162 10.3254 7.94898 10.2212 8.01636C10.173 8.04725 10.1249 8.07814 10.0754 8.10997C9.24259 8.63959 9.24259 8.63959 8.78927 9.49219C8.77347 9.65382 8.76517 9.80174 8.76655 9.96281C8.76623 10.0078 8.76592 10.0527 8.76559 10.0991C8.76476 10.2485 8.76517 10.3979 8.76559 10.5473C8.76526 10.6549 8.76485 10.7626 8.76437 10.8702C8.76332 11.1618 8.76339 11.4533 8.76372 11.7448C8.76391 11.9885 8.76355 12.2323 8.76319 12.476C8.76237 13.0513 8.76246 13.6265 8.76313 14.2017C8.7638 14.7943 8.76298 15.3869 8.76141 15.9795C8.76011 16.489 8.75972 16.9986 8.76006 17.5082C8.76026 17.8122 8.76012 18.1161 8.75911 18.4201C8.7582 18.7061 8.75844 18.9921 8.75954 19.278C8.75976 19.3827 8.75958 19.4873 8.75896 19.5919C8.75573 20.1878 8.7536 20.7368 9.12893 21.2329C9.46953 21.5163 9.83568 21.7493 10.2134 21.9791C10.5291 22.1718 10.8383 22.3742 11.1477 22.5769C11.2338 22.6333 11.2338 22.6333 11.3217 22.6908C11.4374 22.7664 11.553 22.8421 11.6686 22.9178C11.9231 23.0842 12.1781 23.2499 12.4331 23.4155C12.4807 23.4465 12.5283 23.4774 12.5774 23.5093C12.6731 23.5715 12.7687 23.6336 12.8644 23.6957C13.1076 23.8538 13.3508 24.0118 13.594 24.1699C13.6916 24.2334 13.7893 24.2969 13.8869 24.3603C14.4729 24.7412 14.4729 24.7412 14.6194 24.8365C14.7169 24.8998 14.8144 24.9632 14.9119 25.0266C15.1583 25.1867 15.4046 25.3469 15.6509 25.507C16.2342 25.8864 16.8178 26.2653 17.4023 26.6428C17.5222 26.7204 17.6421 26.7982 17.7619 26.876C17.8374 26.9249 17.913 26.9738 17.9885 27.0227C18.0233 27.0454 18.0581 27.0681 18.094 27.0914C18.2354 27.1997 18.2354 27.1997 18.3986 27.2461C18.3986 19.1637 18.3986 11.0812 18.3986 2.7539C18.2794 2.7539 18.1632 2.86258 18.0674 2.92396Z" fill="white"/>
<path d="M2.86748 8.05863C3.05802 8.06033 3.24847 8.05983 3.43901 8.05907C3.56181 8.05944 3.68461 8.05993 3.8074 8.06056C3.89156 8.0603 3.89156 8.0603 3.97742 8.06004C4.57238 8.06826 5.11413 8.21301 5.56636 8.61331C5.95009 9.05709 6.11221 9.4751 6.10898 10.0645C6.10931 10.1305 6.10931 10.1305 6.10965 10.1978C6.11026 10.3443 6.11003 10.4908 6.10979 10.6373C6.11005 10.7427 6.11035 10.8481 6.1107 10.9536C6.11148 11.2393 6.11152 11.525 6.11137 11.8107C6.11131 12.0495 6.1116 12.2883 6.11188 12.5271C6.11253 13.0906 6.11255 13.6541 6.1122 14.2176C6.11184 14.7983 6.11256 15.379 6.11381 15.9597C6.11485 16.4589 6.1152 16.958 6.11501 17.4572C6.1149 17.7551 6.11505 18.0529 6.11587 18.3508C6.11661 18.631 6.11649 18.9112 6.11573 19.1914C6.11559 19.2939 6.11575 19.3965 6.11623 19.4991C6.11928 20.1955 6.0945 20.763 5.62999 21.3236C5.11689 21.8347 4.51251 21.9322 3.81884 21.9338C3.72891 21.9344 3.72891 21.9344 3.63716 21.935C3.51075 21.9355 3.38434 21.9358 3.25793 21.9358C3.06672 21.9361 2.87559 21.9382 2.68439 21.9404C1.09542 21.9492 1.09542 21.9492 0.556591 21.4417C0.512481 21.4023 0.468371 21.363 0.422924 21.3224C-0.0333654 20.7256 -0.0427096 20.1531 -0.0388879 19.4346C-0.0393816 19.3271 -0.0399986 19.2197 -0.0407288 19.1122C-0.0423071 18.8219 -0.04204 18.5316 -0.0413323 18.2413C-0.0409129 17.9983 -0.0414136 17.7552 -0.0419128 17.5122C-0.0430798 16.9386 -0.0427578 16.3651 -0.0414628 15.7915C-0.0401526 15.2011 -0.041184 14.6108 -0.0433994 14.0204C-0.0452333 13.5122 -0.0456922 13.004 -0.0450427 12.4957C-0.0446638 12.1928 -0.044774 11.8899 -0.0461748 11.5869C-0.0474256 11.3019 -0.0469457 11.017 -0.0451734 10.732C-0.0448046 10.6279 -0.0450242 10.5238 -0.0459005 10.4197C-0.0517191 9.66704 0.0419283 9.09172 0.58955 8.52542C1.25154 8.00109 2.06674 8.0508 2.86748 8.05863ZM1.64058 9.84378C1.61368 10.0275 1.61368 10.0275 1.61825 10.2486C1.61798 10.2907 1.61771 10.3328 1.61742 10.3762C1.61672 10.5181 1.61728 10.66 1.61783 10.8019C1.61759 10.9033 1.61728 11.0047 1.6169 11.1062C1.61609 11.3822 1.61641 11.6582 1.61696 11.9342C1.61741 12.2225 1.617 12.5109 1.61672 12.7992C1.6164 13.2835 1.61682 13.7679 1.61766 14.2522C1.61862 14.8127 1.61831 15.3733 1.61734 15.9338C1.61654 16.4144 1.61643 16.895 1.61689 17.3756C1.61716 17.663 1.6172 17.9503 1.61662 18.2376C1.61611 18.5077 1.61646 18.7778 1.61748 19.0479C1.61771 19.1473 1.61764 19.2466 1.61726 19.346C1.61678 19.4811 1.61737 19.6163 1.61825 19.7515C1.61832 19.8273 1.61839 19.903 1.61845 19.9811C1.62575 20.0389 1.63305 20.0967 1.64058 20.1563C1.81996 20.2759 1.85722 20.2883 2.05943 20.2896C2.10812 20.2901 2.15681 20.2907 2.20697 20.2913C2.28553 20.2912 2.28553 20.2912 2.36567 20.2911C2.41963 20.2913 2.47359 20.2916 2.52918 20.2919C2.64325 20.2922 2.75732 20.2922 2.87139 20.292C3.04616 20.2918 3.22088 20.2932 3.39564 20.2946C3.50642 20.2948 3.6172 20.2948 3.72798 20.2948C3.78035 20.2953 3.83272 20.2958 3.88668 20.2964C3.93537 20.296 3.98406 20.2957 4.03422 20.2953C4.07702 20.2953 4.11982 20.2954 4.16391 20.2954C4.31834 20.2655 4.35972 20.2248 4.45308 20.0977C4.47977 19.9101 4.47977 19.9101 4.4754 19.6907C4.47567 19.649 4.47595 19.6074 4.47623 19.5644C4.47693 19.4245 4.47637 19.2846 4.47582 19.1446C4.47606 19.0444 4.47637 18.9442 4.47675 18.8441C4.47756 18.5717 4.47724 18.2993 4.47669 18.0269C4.47624 17.7422 4.47666 17.4575 4.47693 17.1727C4.47725 16.6946 4.47683 16.2164 4.47599 15.7382C4.47504 15.1849 4.47535 14.6316 4.47631 14.0784C4.47711 13.6038 4.47722 13.1292 4.47676 12.6546C4.47649 12.371 4.47645 12.0874 4.47703 11.8037C4.47754 11.5371 4.47719 11.2705 4.47617 11.0038C4.47594 10.9058 4.47601 10.8078 4.4764 10.7098C4.47687 10.5763 4.47628 10.4429 4.4754 10.3094C4.47533 10.2346 4.47526 10.1598 4.4752 10.0827C4.46818 9.90381 4.46818 9.90381 4.37088 9.79041C4.25131 9.70887 4.17843 9.70465 4.03422 9.70477C3.96119 9.70423 3.96119 9.70423 3.88668 9.70367C3.83431 9.70421 3.78194 9.70475 3.72798 9.7053C3.67402 9.70527 3.62006 9.70525 3.56447 9.70522C3.4504 9.70535 3.33633 9.70592 3.22226 9.70689C3.0475 9.70827 2.87278 9.7081 2.69801 9.70771C2.58723 9.70803 2.47645 9.70845 2.36567 9.70897C2.3133 9.70891 2.26093 9.70886 2.20697 9.7088C2.13394 9.70964 2.13394 9.70964 2.05943 9.7105C2.01663 9.71077 1.97383 9.71104 1.92974 9.71131C1.79733 9.72071 1.79733 9.72071 1.64058 9.84378Z" fill="white"/>
<path d="M22 17.6569L27.6569 12" stroke="white" stroke-width="1.5" stroke-linecap="round"/>
<path d="M22 12.0001L27.6569 17.657" stroke="white" stroke-width="1.5" stroke-linecap="round"/>
</g>
<defs>
<clipPath id="clip0_158_244">
<rect width="30" height="30" fill="white"/>
</clipPath>
</defs>
</svg>
