<svg width="30" height="30" viewBox="0 0 30 30" fill="none" xmlns="http://www.w3.org/2000/svg">
<g clip-path="url(#clip0_142_84)">
<path d="M19.3945 0.996092C19.752 1.23158 19.9095 1.47437 20.0134 1.88945C20.0453 2.09012 20.0472 2.28708 20.0467 2.48966C20.0468 2.53355 20.047 2.57744 20.0471 2.62265C20.0474 2.77019 20.0473 2.91773 20.0473 3.06527C20.0474 3.17193 20.0476 3.27859 20.0478 3.38526C20.0483 3.67875 20.0484 3.97224 20.0484 4.26573C20.0485 4.58211 20.049 4.89849 20.0493 5.21488C20.0501 5.90686 20.0505 6.59885 20.0508 7.29084C20.0509 7.72285 20.0512 8.15487 20.0514 8.58688C20.0521 9.78282 20.0527 10.9788 20.0529 12.1747C20.053 12.2895 20.053 12.2895 20.053 12.4067C20.053 12.4834 20.053 12.5601 20.053 12.6392C20.053 12.7947 20.0531 12.9502 20.0531 13.1057C20.0531 13.2214 20.0531 13.2214 20.0531 13.3394C20.0534 14.5894 20.0544 15.8393 20.0558 17.0893C20.0571 18.3723 20.0579 19.6554 20.0579 20.9385C20.058 21.659 20.0583 22.3794 20.0594 23.0999C20.0603 23.7134 20.0606 24.3269 20.0601 24.9404C20.0599 25.2534 20.0599 25.5664 20.0608 25.8794C20.0615 26.1661 20.0614 26.4527 20.0607 26.7394C20.0606 26.843 20.0608 26.9465 20.0613 27.0501C20.0674 28.3767 20.0674 28.3767 19.6062 28.8631C19.2831 29.144 18.93 29.2069 18.5156 29.1797C18.1084 29.0838 17.7854 28.8927 17.4426 28.6597C17.3391 28.5908 17.2355 28.522 17.132 28.4532C17.0796 28.4181 17.0272 28.383 16.9732 28.3468C16.7271 28.1827 16.4787 28.0221 16.2304 27.8613C16.1328 27.7979 16.0351 27.7344 15.9375 27.6709C15.8891 27.6395 15.8408 27.6081 15.791 27.5757C14.1796 26.5283 14.1796 26.5283 14.0331 26.4331C13.9356 26.3697 13.8381 26.3063 13.7406 26.2429C13.4942 26.0828 13.2479 25.9227 13.0016 25.7625C12.545 25.4655 12.0882 25.1688 11.6308 24.873C11.2237 24.6098 10.817 24.3459 10.4106 24.0814C10.1561 23.9159 9.90156 23.7506 9.64664 23.5858C9.36019 23.4005 9.07434 23.2144 8.78902 23.0273C8.72724 22.9869 8.66545 22.9465 8.6018 22.9049C8.09976 22.5664 7.75301 22.2246 7.47799 21.6833C7.45841 21.6449 7.43884 21.6065 7.41868 21.5669C7.20608 21.1239 7.13056 20.6819 7.13312 20.1934C7.1329 20.147 7.13267 20.1006 7.13244 20.0528C7.13184 19.899 7.13207 19.7452 7.1323 19.5914C7.13205 19.4805 7.13174 19.3696 7.1314 19.2586C7.13061 18.9584 7.13058 18.6582 7.13073 18.3579C7.13079 18.1067 7.1305 17.8556 7.13022 17.6044C7.12957 17.0116 7.12955 16.4187 7.1299 15.8258C7.13025 15.2155 7.12953 14.6051 7.12828 13.9947C7.12725 13.4696 7.1269 12.9444 7.12709 12.4193C7.1272 12.1061 7.12705 11.7929 7.12623 11.4798C7.12549 11.1851 7.12561 10.8904 7.12637 10.5958C7.12651 10.4881 7.12635 10.3804 7.12587 10.2727C7.12158 9.24749 7.25952 8.34445 7.98336 7.55493C8.3222 7.23838 8.71025 7.00673 9.10488 6.7662C9.4536 6.5527 9.79277 6.32557 10.132 6.09746C10.6188 5.77017 11.1064 5.44556 11.606 5.13798C12.1216 4.8197 12.6263 4.48438 13.1332 4.15252C13.3877 3.98609 13.6427 3.8204 13.8977 3.65478C13.9453 3.62383 13.9929 3.59288 14.042 3.56099C14.1377 3.49884 14.2333 3.43671 14.329 3.37458C14.5232 3.24836 14.7175 3.1221 14.9117 2.99583C15.0581 2.90069 15.2045 2.80555 15.3508 2.71042C15.5983 2.54959 15.8457 2.38871 16.093 2.22781C16.2394 2.13264 16.3859 2.03758 16.5323 1.94252C16.7202 1.82052 16.9077 1.69795 17.0949 1.57493C17.1394 1.54586 17.1838 1.51679 17.2296 1.48684C17.3121 1.43286 17.3945 1.37869 17.4767 1.32428C18.0915 0.923119 18.6824 0.623972 19.3945 0.996092ZM18.0672 2.92396C18.0091 2.96114 17.9511 2.99831 17.8912 3.03662C17.8278 3.07746 17.7643 3.11831 17.6989 3.1604C17.6328 3.20285 17.5667 3.24529 17.5006 3.28773C16.8404 3.71192 16.1841 4.14195 15.5278 4.57211C15.2668 4.74298 15.0053 4.91308 14.7436 5.08301C14.6966 5.11354 14.6496 5.14406 14.6012 5.17552C14.5076 5.23628 14.414 5.29703 14.3205 5.35778C14.0782 5.51512 13.8359 5.67261 13.5937 5.83008C13.4963 5.8934 13.3989 5.95673 13.3014 6.02005C13.1038 6.1485 12.9062 6.27698 12.7086 6.40549C12.252 6.70243 11.7952 6.99915 11.3379 7.29492C11.2574 7.34703 11.1769 7.39914 11.0964 7.45125C10.909 7.57252 10.7214 7.69342 10.5338 7.81425C10.4295 7.88162 10.3252 7.94898 10.2209 8.01636C10.1728 8.04725 10.1247 8.07814 10.0751 8.10997C9.24234 8.63959 9.24234 8.63959 8.78902 9.49219C8.77323 9.65382 8.76493 9.80174 8.76631 9.96281C8.76599 10.0078 8.76567 10.0527 8.76535 10.0991C8.76452 10.2485 8.76493 10.3979 8.76535 10.5473C8.76501 10.6549 8.7646 10.7626 8.76413 10.8702C8.76308 11.1618 8.76315 11.4533 8.76348 11.7448C8.76366 11.9885 8.7633 12.2323 8.76295 12.476C8.76213 13.0513 8.76222 13.6265 8.76289 14.2017C8.76356 14.7943 8.76273 15.3869 8.76116 15.9795C8.75986 16.489 8.75948 16.9986 8.75982 17.5082C8.76002 17.8122 8.75988 18.1161 8.75887 18.4201C8.75796 18.7061 8.7582 18.9921 8.7593 19.278C8.75951 19.3827 8.75933 19.4873 8.75872 19.5919C8.75548 20.1878 8.75336 20.7368 9.12868 21.2329C9.46928 21.5163 9.83543 21.7493 10.2131 21.9791C10.5288 22.1718 10.838 22.3742 11.1474 22.5769C11.2336 22.6333 11.2336 22.6333 11.3215 22.6908C11.4371 22.7664 11.5528 22.8421 11.6684 22.9178C11.9229 23.0842 12.1778 23.2499 12.4328 23.4155C12.4805 23.4465 12.5281 23.4774 12.5772 23.5093C12.6728 23.5715 12.7685 23.6336 12.8641 23.6957C13.1073 23.8538 13.3505 24.0118 13.5937 24.1699C13.6914 24.2334 13.789 24.2969 13.8867 24.3603C14.4726 24.7412 14.4726 24.7412 14.6191 24.8365C14.7167 24.8998 14.8142 24.9632 14.9117 25.0266C15.158 25.1867 15.4044 25.3469 15.6507 25.507C16.234 25.8864 16.8175 26.2653 17.402 26.6428C17.522 26.7204 17.6418 26.7982 17.7616 26.876C17.8372 26.9249 17.9127 26.9738 17.9882 27.0227C18.0231 27.0454 18.0579 27.0681 18.0937 27.0914C18.2351 27.1997 18.2351 27.1997 18.3984 27.2461C18.3984 19.1637 18.3984 11.0812 18.3984 2.7539C18.2791 2.7539 18.1629 2.86258 18.0672 2.92396Z" fill="white"/>
<path d="M2.86748 8.05863C3.05802 8.06033 3.24847 8.05983 3.43901 8.05907C3.56181 8.05944 3.68461 8.05993 3.8074 8.06056C3.89156 8.0603 3.89156 8.0603 3.97742 8.06004C4.57238 8.06826 5.11413 8.21301 5.56636 8.61331C5.95009 9.05709 6.11221 9.4751 6.10898 10.0645C6.10931 10.1305 6.10931 10.1305 6.10965 10.1978C6.11026 10.3443 6.11003 10.4908 6.10979 10.6373C6.11005 10.7427 6.11035 10.8481 6.1107 10.9536C6.11148 11.2393 6.11152 11.525 6.11137 11.8107C6.11131 12.0495 6.1116 12.2883 6.11188 12.5271C6.11253 13.0906 6.11255 13.6541 6.1122 14.2176C6.11184 14.7983 6.11256 15.379 6.11381 15.9597C6.11485 16.4589 6.1152 16.958 6.11501 17.4572C6.1149 17.7551 6.11505 18.0529 6.11587 18.3508C6.11661 18.631 6.11649 18.9112 6.11573 19.1914C6.11559 19.2939 6.11575 19.3965 6.11623 19.4991C6.11928 20.1955 6.0945 20.763 5.62999 21.3236C5.11689 21.8347 4.51251 21.9322 3.81884 21.9338C3.72891 21.9344 3.72891 21.9344 3.63716 21.935C3.51075 21.9355 3.38434 21.9358 3.25793 21.9358C3.06672 21.9361 2.87559 21.9382 2.68439 21.9404C1.09542 21.9492 1.09542 21.9492 0.556591 21.4417C0.512481 21.4023 0.468371 21.363 0.422924 21.3224C-0.0333654 20.7256 -0.0427096 20.1531 -0.0388879 19.4346C-0.0393816 19.3271 -0.0399986 19.2197 -0.0407288 19.1122C-0.0423071 18.8219 -0.04204 18.5316 -0.0413323 18.2413C-0.0409129 17.9983 -0.0414136 17.7552 -0.0419128 17.5122C-0.0430798 16.9386 -0.0427578 16.3651 -0.0414628 15.7915C-0.0401526 15.2011 -0.041184 14.6108 -0.0433994 14.0204C-0.0452333 13.5122 -0.0456922 13.004 -0.0450427 12.4957C-0.0446638 12.1928 -0.044774 11.8899 -0.0461748 11.5869C-0.0474256 11.3019 -0.0469457 11.017 -0.0451734 10.732C-0.0448046 10.6279 -0.0450242 10.5238 -0.0459005 10.4197C-0.0517191 9.66704 0.0419283 9.09172 0.58955 8.52542C1.25154 8.00109 2.06674 8.0508 2.86748 8.05863ZM1.64058 9.84378C1.61368 10.0275 1.61368 10.0275 1.61825 10.2486C1.61798 10.2907 1.61771 10.3328 1.61742 10.3762C1.61672 10.5181 1.61728 10.66 1.61783 10.8019C1.61759 10.9033 1.61728 11.0047 1.6169 11.1062C1.61609 11.3822 1.61641 11.6582 1.61696 11.9342C1.61741 12.2225 1.617 12.5109 1.61672 12.7992C1.6164 13.2835 1.61682 13.7679 1.61766 14.2522C1.61862 14.8127 1.61831 15.3733 1.61734 15.9338C1.61654 16.4144 1.61643 16.895 1.61689 17.3756C1.61716 17.663 1.6172 17.9503 1.61662 18.2376C1.61611 18.5077 1.61646 18.7778 1.61748 19.0479C1.61771 19.1473 1.61764 19.2466 1.61726 19.346C1.61678 19.4811 1.61737 19.6163 1.61825 19.7515C1.61832 19.8273 1.61839 19.903 1.61845 19.9811C1.62575 20.0389 1.63305 20.0967 1.64058 20.1563C1.81996 20.2759 1.85722 20.2883 2.05943 20.2896C2.10812 20.2901 2.15681 20.2907 2.20697 20.2913C2.28553 20.2912 2.28553 20.2912 2.36567 20.2911C2.41963 20.2913 2.47359 20.2916 2.52918 20.2919C2.64325 20.2922 2.75732 20.2922 2.87139 20.292C3.04616 20.2918 3.22088 20.2932 3.39564 20.2946C3.50642 20.2948 3.6172 20.2948 3.72798 20.2948C3.78035 20.2953 3.83272 20.2958 3.88668 20.2964C3.93537 20.296 3.98406 20.2957 4.03422 20.2953C4.07702 20.2953 4.11982 20.2954 4.16391 20.2954C4.31834 20.2655 4.35972 20.2248 4.45308 20.0977C4.47977 19.9101 4.47977 19.9101 4.4754 19.6907C4.47567 19.649 4.47595 19.6074 4.47623 19.5644C4.47693 19.4245 4.47637 19.2846 4.47582 19.1446C4.47606 19.0444 4.47637 18.9442 4.47675 18.8441C4.47756 18.5717 4.47724 18.2993 4.47669 18.0269C4.47624 17.7422 4.47666 17.4575 4.47693 17.1727C4.47725 16.6946 4.47683 16.2164 4.47599 15.7382C4.47504 15.1849 4.47535 14.6316 4.47631 14.0784C4.47711 13.6038 4.47722 13.1292 4.47676 12.6546C4.47649 12.371 4.47645 12.0874 4.47703 11.8037C4.47754 11.5371 4.47719 11.2705 4.47617 11.0038C4.47594 10.9058 4.47601 10.8078 4.4764 10.7098C4.47687 10.5763 4.47628 10.4429 4.4754 10.3094C4.47533 10.2346 4.47526 10.1598 4.4752 10.0827C4.46818 9.90381 4.46818 9.90381 4.37088 9.79041C4.25131 9.70887 4.17843 9.70465 4.03422 9.70477C3.96119 9.70423 3.96119 9.70423 3.88668 9.70367C3.83431 9.70421 3.78194 9.70475 3.72798 9.7053C3.67402 9.70527 3.62006 9.70525 3.56447 9.70522C3.4504 9.70535 3.33633 9.70592 3.22226 9.70689C3.0475 9.70827 2.87278 9.7081 2.69801 9.70771C2.58723 9.70803 2.47645 9.70845 2.36567 9.70897C2.3133 9.70891 2.26093 9.70886 2.20697 9.7088C2.13394 9.70964 2.13394 9.70964 2.05943 9.7105C2.01663 9.71077 1.97383 9.71104 1.92974 9.71131C1.79733 9.72071 1.79733 9.72071 1.64058 9.84378Z" fill="white"/>
<path d="M27.1288 6.91404C28.5018 7.69355 29.1694 10.0244 29.5737 11.435C29.8274 12.3652 30.0044 13.3271 30.0139 14.293C30.0145 14.3414 30.015 14.3899 30.0156 14.4398C30.026 15.5462 30.007 16.6102 29.7656 17.6953C29.753 17.7524 29.7404 17.8095 29.7275 17.8684C29.4584 19.0556 29.0596 20.1999 28.4765 21.2695C28.4575 21.3051 28.4384 21.3407 28.4188 21.3774C27.6615 22.7903 27.6615 22.7903 27.0702 23.0859C26.6938 23.1178 26.4986 23.0744 26.1913 22.8515C25.9936 22.6347 25.9864 22.4162 25.9898 22.1341C26.0377 21.8338 26.2184 21.6187 26.3964 21.3794C26.4725 21.2713 26.5482 21.163 26.6235 21.0544C26.6602 21.0015 26.6969 20.9485 26.7347 20.894C26.9635 20.5505 27.1385 20.1816 27.3046 19.8047C27.3356 19.7347 27.3666 19.6648 27.3985 19.5927C27.9231 18.3418 28.2997 16.9486 28.3147 15.5861C28.3155 15.5209 28.3155 15.5209 28.3164 15.4543C28.343 12.9151 27.7889 10.4403 26.2687 8.36149C26.0849 8.10191 26.0317 7.89801 26.0494 7.57803C26.0982 7.30839 26.2341 7.15365 26.4367 6.97996C26.6669 6.8879 26.8851 6.86321 27.1288 6.91404Z" fill="white"/>
<path d="M23.3496 9.68265C24.5544 10.8354 25.0236 13.0591 25.0781 14.6485C25.0816 14.7272 25.0816 14.7272 25.0852 14.8075C25.129 16.6873 24.6054 18.9049 23.3203 20.3321C23.0602 20.4842 22.8523 20.5418 22.5583 20.4914C22.3123 20.4028 22.0898 20.2148 21.9726 19.9805C21.9284 19.5843 21.9783 19.3138 22.207 18.9844C23.2759 17.2858 23.6045 15.2918 23.1875 13.3335C22.97 12.3808 22.6087 11.5147 22.0312 10.7227C21.9393 10.447 21.9405 10.2231 22.0422 9.94999C22.1772 9.74055 22.319 9.60566 22.5476 9.50321C22.8542 9.47693 23.1022 9.49414 23.3496 9.68265Z" fill="white"/>
</g>
<defs>
<clipPath id="clip0_142_84">
<rect width="30" height="30" fill="white"/>
</clipPath>
</defs>
</svg>
