<?xml version="1.0" encoding="utf-8"?><svg xmlns="http://www.w3.org/2000/svg" xmlns:xlink="http://www.w3.org/1999/xlink"><symbol id="2" viewBox="0 0 100 100" xml:space="preserve" xmlns="http://www.w3.org/2000/svg"><style>.st1{display:none}.st2{fill:none;stroke:#231f20;stroke-width:2;stroke-miterlimit:10}.st2,.st3{display:inline}.st4,.st5{fill:none;stroke:#231f20;stroke-width:2;stroke-miterlimit:10}.st5{stroke:#000}</style><circle cx="50" cy="50.2" r="50" fill="#e2e2e2"/><g><path d="M63.9 71.7c0-6.6-4.6-12.1-10.8-13.4v-3.4c2.3-1.1 3.9-3.4 3.9-6.2v-3.4c0-3.8-3.1-6.8-6.8-6.8-3.8 0-6.8 3.1-6.8 6.8v3.4c0 2.7 1.6 5 3.8 6.1v3.5c-6.1 1.4-10.7 6.8-10.7 13.4h27.4z"/><path d="M57.1 43.3c1-.6 2.1-1.1 3.2-1.3v-2.6c-1.7-.8-2.9-2.6-2.9-4.6v-2.6c0-2.9 2.3-5.2 5.2-5.2s5.2 2.3 5.2 5.2v2.6c0 2.1-1.2 3.8-3 4.7V42c4.7 1 8.2 5.1 8.2 10.1H56.2M43.7 43.3c-1-.6-2.1-1.1-3.2-1.3v-2.6c1.7-.8 3-2.6 3-4.7v-2.6c0-2.9-2.3-5.2-5.2-5.2-2.8 0-5.2 2.3-5.2 5.2v2.6c0 2 1.2 3.8 2.9 4.6V42c-4.6 1-8.1 5.2-8.1 10.1h15.8"/></g><g><g><path d="M72.8 29.4H43.7v23.1h6.7v6.6l6.7-6.6h15.7z"/><path d="M43.7 42.1H29.8v23.1h7.3l6.7 7.1v-7.1h16.5V52.8"/></g><circle transform="matrix(1 -.0037 .0037 1 -.13 .189)" cx="51" cy="35.5" r="1.7"/><circle transform="matrix(1 -.0037 .0037 1 -.13 .217)" cx="58.8" cy="35.5" r="1.7"/></g><g><path d="M25.8 32.3h5.5l9.2 30.8h24.1l3.9-25.5H32.9"/><circle cx="43.6" cy="69.9" r="3.1"/><circle cx="61.1" cy="70.1" r="3.1"/><path d="M38.9 57.8l2.8 9.4M47 69.3h11"/></g><g><g><path d="M23.2 44.2h45.2v24.7H23.2z"/><circle cx="46" cy="56.5" r="7.7"/><path d="M27.9 48.9v15.3M63.8 48.9v15.3"/></g><g><path d="M28.7 44.2v-6h45.2v24.7h-5.5"/></g><g><path d="M33.8 38.7v-6H79v24.7h-5.5"/></g></g><g><g><circle cx="50.8" cy="49.4" r="20.2"/><path d="M50.4 34.2v19.1M50.4 53.3l6.6-6.6"/></g><circle cx="50.8" cy="49.4" r="25.2" fill="none" stroke="#000" stroke-width="2" stroke-miterlimit="10"/></g><path d="M49.6 25.6l-7 14.1L27.1 42c-1.4.2-1.9 1.9-.9 2.8l11.2 11-2.6 15.6c-.2 1.3 1.2 2.4 2.4 1.8L51.4 66 65 73.2c1.2.6 2.6-.4 2.4-1.8L64.7 56l11.2-11c.9-.9.5-2.6-.9-2.8L59.4 40l-7-14.1c-.4-1.4-2.2-1.4-2.8-.3z"/></symbol></svg>