<?xml version="1.0" encoding="utf-8"?><svg xmlns="http://www.w3.org/2000/svg" xmlns:xlink="http://www.w3.org/1999/xlink"><symbol id="1" viewBox="0 0 100 100" xml:space="preserve" xmlns="http://www.w3.org/2000/svg"><style>.st0{fill:#e2e2e2}.st1{display:none}.st2{fill:none;stroke:#231f20;stroke-width:2;stroke-miterlimit:10}.st2,.st3{display:inline}.st4,.st5,.st6{fill:none;stroke:#231f20;stroke-width:2;stroke-miterlimit:10}.st5,.st6{stroke:#000}.st6{display:inline}</style><circle cx="50" cy="50.2" r="50"/><g><path d="M63.9 71.7c0-6.6-4.6-12.1-10.8-13.4v-3.4c2.3-1.1 3.9-3.4 3.9-6.2v-3.4c0-3.8-3.1-6.8-6.8-6.8-3.8 0-6.8 3.1-6.8 6.8v3.4c0 2.7 1.6 5 3.8 6.1v3.5c-6.1 1.4-10.7 6.8-10.7 13.4h27.4z"/><path d="M57.1 43.3c1-.6 2.1-1.1 3.2-1.3v-2.6c-1.7-.8-2.9-2.6-2.9-4.6v-2.6c0-2.9 2.3-5.2 5.2-5.2s5.2 2.3 5.2 5.2v2.6c0 2.1-1.2 3.8-3 4.7V42c4.7 1 8.2 5.1 8.2 10.1H56.2M43.7 43.3c-1-.6-2.1-1.1-3.2-1.3v-2.6c1.7-.8 3-2.6 3-4.7v-2.6c0-2.9-2.3-5.2-5.2-5.2-2.8 0-5.2 2.3-5.2 5.2v2.6c0 2 1.2 3.8 2.9 4.6V42c-4.6 1-8.1 5.2-8.1 10.1h15.8"/></g><g><g><path d="M72.8 29.4H43.7v23.1h6.7v6.6l6.7-6.6h15.7z"/><path d="M43.7 42.1H29.8v23.1h7.3l6.7 7.1v-7.1h16.5V52.8"/></g><circle transform="matrix(1 -.0037 .0037 1 -.13 .189)" cx="51" cy="35.5" r="1.7"/><circle transform="matrix(1 -.0037 .0037 1 -.13 .217)" cx="58.8" cy="35.5" r="1.7"/></g><g><path d="M25.8 32.3h5.5l9.2 30.8h24.1l3.9-25.5H32.9"/><circle cx="43.6" cy="69.9" r="3.1"/><circle cx="61.1" cy="70.1" r="3.1"/><path d="M38.9 57.8l2.8 9.4M47 69.3h11"/></g><g><g><path d="M23.2 44.2h45.2v24.7H23.2z"/><circle cx="46" cy="56.5" r="7.7"/><path d="M27.9 48.9v15.3M63.8 48.9v15.3"/></g><g><path d="M28.7 44.2v-6h45.2v24.7h-5.5"/></g><g><path d="M33.8 38.7v-6H79v24.7h-5.5"/></g></g><g><g><circle cx="50.8" cy="49.4" r="20.2"/><path d="M50.4 34.2v19.1M50.4 53.3l6.6-6.6"/></g><circle cx="50.8" cy="49.4" r="25.2"/></g><path d="M49.6 25.6l-7 14.1L27.1 42c-1.4.2-1.9 1.9-.9 2.8l11.2 11-2.6 15.6c-.2 1.3 1.2 2.4 2.4 1.8L51.4 66 65 73.2c1.2.6 2.6-.4 2.4-1.8L64.7 56l11.2-11c.9-.9.5-2.6-.9-2.8L59.4 40l-7-14.1c-.4-1.4-2.2-1.4-2.8-.3z"/></symbol><symbol viewBox="0 0 24 24" id="arrow-left-2" xmlns="http://www.w3.org/2000/svg"><path d="M7.932 2.027c.12.08.12.08.235.184l.128.114.123.116.107.098.312.3.118.115.389.377a1198.213 1198.213 0 001.038 1.007l.793.77a4159.49 4159.49 0 012.872 2.786 5137.803 5137.803 0 013.127 3.034l.37.36.11.106c.21.204.305.299.346.586-.003.225-.064.322-.22.486l-.117.124a29.252 29.252 0 01-.648.642l-.389.377-.28.272-.758.735-.793.77a5432.909 5432.909 0 01-2.872 2.786 3212.17 3212.17 0 01-3.498 3.393l-.11.107c-.22.213-.336.315-.646.328-.233-.002-.274-.014-.467-.162-.19-.242-.224-.38-.183-.687.335-.489.862-.902 1.29-1.316a482.028 482.028 0 00.973-.944l.743-.72a3606.587 3606.587 0 013.008-2.917l3.294-3.192c-.1-.25-.29-.416-.482-.6l-.113-.11-.377-.364a332.04 332.04 0 01-.85-.823 2402.832 2402.832 0 00-2.369-2.293 4752.202 4752.202 0 01-4.344-4.204l-.36-.347-.106-.103c-.3-.292-.3-.292-.326-.556.022-.259.096-.376.262-.575.219-.106.432-.1.67-.06z"/></symbol><symbol viewBox="0 0 23 23" id="arrow-right" xmlns="http://www.w3.org/2000/svg"><path d="M21.312 11.5H1m0 0l9.871-9.87m-9.87 9.87l9.87 9.87"/></symbol><symbol viewBox="0 0 30 30" id="download" xmlns="http://www.w3.org/2000/svg"><path d="M15.732 1.989c.346.198.55.509.674.882.006.091.008.183.008.274l.001.172v.19l.001.2.002.669.002.478a1181.108 1181.108 0 01.008 2.521 3899.165 3899.165 0 01.015 4.768v.146l.003.727.019 6.027.085-.08.39-.367.134-.127c.36-.34.724-.675 1.09-1.008l.352-.322.175-.162.088-.08.352-.322.176-.162.437-.4.174-.16.087-.08a151.281 151.281 0 001.19-1.102c.403-.381.736-.613 1.301-.641a1.58 1.58 0 011.052.424c.327.355.39.71.38 1.185-.08.667-.588 1.073-1.065 1.489-.239.208-.47.423-.7.64-.336.317-.674.631-1.015.943-.28.256-.559.514-.837.771l-.283.26c-.34.314-.68.629-1.018.945-.32.3-.642.596-.965.892a93.581 93.581 0 00-1.085 1.01c-.624.601-1.296.87-2.161.86-.921-.054-1.523-.65-2.153-1.257-.153-.146-.31-.29-.466-.432-.519-.474-1.035-.951-1.549-1.432-.32-.299-.642-.596-.966-.892a722.613 722.613 0 00-1.506-1.39l-.095-.087-.286-.264-.095-.088a46.042 46.042 0 00-.685-.627l-.104-.094a25.46 25.46 0 00-.196-.176c-.33-.3-.553-.616-.604-1.066-.014-.506.103-.847.447-1.216.291-.271.582-.365.977-.388.575.022.968.313 1.359.707a330.39 330.39 0 00.386.378c.134.13.272.256.412.38.246.219.486.442.725.667.29.271.582.54.878.805.241.216.479.437.716.657a176.557 176.557 0 001.23 1.127l.091.082.22.2v-.103c.001-2.016.003-4.032.008-6.048l.001-.726v-.146l.003-2.34.003-2.403c.002-.494.002-.988.002-1.482 0-.339 0-.678.002-1.017v-.586c0-.212 0-.424.002-.636 0-.062 0-.123-.002-.186a1.88 1.88 0 01.333-1.085c.137-.132.137-.132.27-.209l.135-.08c.43-.218 1.005-.2 1.44-.007z"/><path d="M4.013 18.863c.346.2.55.51.674.883v5.567h20.625v-5.567c.33-.66.33-.66.564-.795l.134-.08c.388-.197.877-.187 1.29-.074.377.166.582.41.766.773.056.166.067.27.068.442v.165l.001.181a1017.099 1017.099 0 01.004.818v.217c.002.378.003.756.003 1.135 0 .39.003.78.005 1.17.002.3.002.6.002.901l.002.431c.002.202.002.404.001.606l.003.178a2.317 2.317 0 01-.675 1.666c-.459.42-.989.652-1.61.653h-.115l-.385.001h-.278c-.256.002-.51.002-.766.002l-.826.002-1.994.003h-.564l-3.499.004H16.43c-1.087.001-2.175.003-3.262.006-1.117.002-2.233.004-3.35.004-.627 0-1.254 0-1.88.003-.535.001-1.069.002-1.603.001-.272 0-.544 0-.817.002H4.5c-.737.008-1.343-.14-1.919-.621-.49-.485-.722-1.022-.73-1.707v-.177l-.001-.192a244.278 244.278 0 01-.003-1.967c0-.388-.002-.775-.004-1.163-.002-.3-.002-.599-.002-.898 0-.143 0-.286-.002-.429v-.6c0-.059 0-.117-.002-.177.005-.413.107-.722.332-1.07.138-.132.138-.132.27-.209l.135-.08c.43-.218 1.005-.2 1.44-.008z"/></symbol><symbol viewBox="0 0 29 29" id="modal-close" xmlns="http://www.w3.org/2000/svg"><path d="M2 27L26.749 2.251M2 2l24.749 24.749"/></symbol><symbol viewBox="0 0 50 50" id="slider-arrow-left" xmlns="http://www.w3.org/2000/svg"><rect x=".5" y="-.5" width="49" height="49" rx="24.5" transform="matrix(1 0 0 -1 0 49)"/><rect x=".5" y="-.5" width="49" height="49" rx="24.5" transform="matrix(1 0 0 -1 0 49)"/><path d="M24.245 32.704l.095-.093.31-.311.223-.222c.203-.201.404-.403.605-.605l.633-.633c.355-.354.71-.709 1.063-1.064.409-.41.819-.82 1.23-1.229a456.673 456.673 0 001.686-1.685 110.327 110.327 0 00.809-.81c.1-.099.198-.198.296-.298l.087-.086c.203-.209.266-.377.29-.665-.028-.339-.14-.52-.377-.752l-.093-.095a156.266 156.266 0 01-.532-.534c-.2-.202-.401-.403-.603-.604l-.505-.505c-.396-.398-.793-.795-1.19-1.191-.41-.409-.82-.819-1.227-1.23-.35-.352-.702-.704-1.054-1.055l-.63-.63a97.249 97.249 0 00-.592-.592 29.621 29.621 0 01-.216-.218c-.099-.1-.198-.198-.298-.296a54.708 54.708 0 00-.085-.088c-.23-.22-.45-.277-.76-.29-.305.05-.492.196-.699.417a1.054 1.054 0 00-.187.816c.07.213.163.311.321.469l.083.083a183.412 183.412 0 01.473.47c.178.18.357.357.536.534l.56.559 1.062 1.056 1.208 1.202c.828.826 1.656 1.65 2.485 2.474a23.126 23.126 0 01-6.145 6.095c-.549.536-.549.536-.607.853-.001.353.075.556.31.815.22.206.384.275.683.316.338-.036.52-.14.752-.378z"/></symbol></svg>