<svg width="50" height="50" viewBox="0 0 50 50" fill="none" xmlns="http://www.w3.org/2000/svg">
<rect x="0.5" y="-0.5" width="49" height="49" rx="24.5" transform="matrix(1 0 0 -1 0 49)" fill="#62B0C6" fill-opacity="0.65"/>
<rect x="0.5" y="-0.5" width="49" height="49" rx="24.5" transform="matrix(1 0 0 -1 0 49)" stroke="white"/>
<path d="M24.2448 32.7038C24.2917 32.6577 24.2917 32.6577 24.3395 32.6107C24.4436 32.5079 24.5465 32.404 24.6494 32.3C24.724 32.2259 24.7986 32.1519 24.8733 32.0779C25.0756 31.877 25.2769 31.6752 25.478 31.4731C25.6886 31.2616 25.9001 31.0509 26.1114 30.8401C26.4661 30.486 26.8202 30.1312 27.1738 29.776C27.5826 29.3654 27.9925 28.956 28.4031 28.5473C28.7556 28.1962 29.1076 27.8445 29.459 27.4922C29.6688 27.2819 29.8789 27.0718 30.0895 26.8622C30.2875 26.6652 30.4847 26.4674 30.6812 26.2689C30.7534 26.1962 30.826 26.1238 30.8988 26.0517C30.9982 25.9532 31.0966 25.8537 31.1947 25.7539C31.2237 25.7257 31.2527 25.6974 31.2825 25.6683C31.4849 25.4593 31.5484 25.2906 31.5726 25.0025C31.5441 24.6643 31.432 24.4822 31.1953 24.251C31.1646 24.2198 31.1339 24.1885 31.1023 24.1563C30.9997 24.0522 30.896 23.9493 30.7922 23.8464C30.7183 23.7719 30.6443 23.6972 30.5705 23.6225C30.37 23.4202 30.1685 23.2189 29.9667 23.0178C29.7982 22.8498 29.6303 22.6813 29.4624 22.5127C29.0661 22.1151 28.669 21.7183 28.2714 21.322C27.8614 20.9134 27.4527 20.5034 27.0447 20.0928C26.6942 19.7401 26.3429 19.3881 25.9909 19.0369C25.7808 18.8271 25.571 18.6171 25.3619 18.4063C25.1652 18.2082 24.9676 18.011 24.7692 17.8146C24.6966 17.7425 24.6243 17.6699 24.5525 17.5971C24.4542 17.4974 24.3547 17.3991 24.2548 17.3011C24.2268 17.2721 24.1988 17.2431 24.1699 17.2133C23.9405 16.9925 23.7196 16.9359 23.4105 16.9232C23.1052 16.9727 22.918 17.119 22.711 17.3395C22.5328 17.5881 22.4761 17.8561 22.5237 18.1563C22.5942 18.369 22.6866 18.4673 22.8451 18.625C22.8724 18.6525 22.8997 18.6801 22.9278 18.7084C23.0192 18.8002 23.1114 18.891 23.2036 18.9819C23.2694 19.0476 23.3351 19.1134 23.4008 19.1792C23.5791 19.3575 23.7581 19.5351 23.9372 19.7125C24.1244 19.8981 24.3109 20.0845 24.4975 20.2707C24.8507 20.6232 25.2046 20.9751 25.5588 21.3267C25.962 21.7271 26.3644 22.1282 26.7669 22.5294C27.5946 23.3546 28.4232 24.1788 29.2524 25.0025C29.2181 25.0364 29.1838 25.0703 29.1485 25.1053C28.3136 25.9309 27.4799 26.7578 26.6475 27.5859C26.2449 27.9864 25.842 28.3864 25.4381 28.7855C25.086 29.1335 24.7347 29.4821 24.3843 29.8316C24.1987 30.0167 24.0128 30.2013 23.826 30.3851C23.6501 30.5582 23.4752 30.7322 23.301 30.907C23.237 30.9709 23.1726 31.0345 23.1079 31.0976C22.5584 31.6342 22.5584 31.6342 22.4996 31.9514C22.4986 32.3038 22.5749 32.507 22.8097 32.7658C23.0306 32.9719 23.194 33.0409 23.4934 33.0817C23.8306 33.0463 24.0135 32.9411 24.2448 32.7038Z" fill="white"/>
</svg>
