<svg width="24" height="24" viewBox="0 0 24 24" fill="none" xmlns="http://www.w3.org/2000/svg">
<path d="M7.93156 2.02749C8.05228 2.10675 8.05228 2.10675 8.16729 2.21102C8.20927 2.24869 8.25125 2.28636 8.29451 2.32517C8.33534 2.36328 8.37618 2.4014 8.41825 2.44067C8.45339 2.47326 8.48854 2.50584 8.52475 2.53942C8.62976 2.63835 8.73336 2.73851 8.83666 2.83913C8.87579 2.877 8.91492 2.91487 8.95523 2.95388C9.08488 3.07943 9.21431 3.20519 9.34374 3.33095C9.4372 3.42155 9.53067 3.51214 9.62416 3.60271C9.87691 3.84767 10.1295 4.09282 10.382 4.33801C10.6464 4.59469 10.911 4.85123 11.1755 5.10779C11.6192 5.53822 12.0629 5.96876 12.5064 6.39938C13.0197 6.89769 13.5332 7.39579 14.0468 7.89378C14.4878 8.32142 14.9287 8.74916 15.3696 9.17701C15.6328 9.43254 15.8962 9.68803 16.1596 9.94342C16.4069 10.1831 16.654 10.423 16.901 10.663C16.9918 10.7512 17.0827 10.8394 17.1737 10.9276C17.2974 11.0474 17.4209 11.1675 17.5444 11.2875C17.5808 11.3228 17.6172 11.358 17.6548 11.3942C17.8639 11.5981 17.9591 11.6925 18 11.9805C17.9974 12.2049 17.9361 12.3025 17.7804 12.4656C17.7222 12.5271 17.7222 12.5271 17.6628 12.5899C17.4881 12.7676 17.3123 12.9436 17.133 13.1169C17.094 13.1549 17.055 13.1929 17.0148 13.232C16.8854 13.3578 16.7557 13.4833 16.6261 13.6089C16.5327 13.6996 16.4394 13.7903 16.346 13.881C16.0935 14.1262 15.8409 14.3712 15.5881 14.6162C15.3236 14.8728 15.0592 15.1295 14.7947 15.3861C14.3511 15.8166 13.9073 16.247 13.4635 16.6774C12.9499 17.1754 12.4365 17.6736 11.9232 18.1719C11.4825 18.5998 11.0416 19.0276 10.6006 19.4553C10.3372 19.7107 10.0739 19.9662 9.81068 20.2218C9.56359 20.4617 9.31636 20.7014 9.06901 20.9411C8.97806 21.0292 8.88717 21.1174 8.79634 21.2057C8.67279 21.3257 8.54907 21.4456 8.42529 21.5654C8.38901 21.6007 8.35273 21.636 8.31535 21.6724C8.09512 21.8851 7.97947 21.9868 7.6692 22C7.43604 21.9985 7.39473 21.9861 7.20152 21.8377C7.0113 21.5955 6.97813 21.4589 7.01901 21.1515C7.35443 20.6622 7.88082 20.2485 8.30856 19.8346C8.39615 19.7497 8.48372 19.6647 8.57128 19.5797C8.80792 19.3501 9.04474 19.1207 9.28161 18.8913C9.52952 18.6511 9.77726 18.4108 10.025 18.1705C10.4937 17.7159 10.9626 17.2615 11.4315 16.8072C11.9655 16.2897 12.4994 15.7721 13.0332 15.2544C14.131 14.19 15.2289 13.1258 16.327 12.0617C16.2269 11.8125 16.0367 11.6461 15.8447 11.4619C15.8073 11.4256 15.77 11.3893 15.7316 11.352C15.6063 11.2303 15.4805 11.1091 15.3548 10.9879C15.2649 10.9009 15.1751 10.8138 15.0853 10.7267C14.8918 10.5392 14.6981 10.3518 14.5043 10.1646C14.1981 9.86878 13.8923 9.57257 13.5866 9.2763C13.1032 8.80797 12.6195 8.33992 12.1357 7.87199C11.2687 7.03342 10.402 6.19453 9.53568 5.35534C9.23141 5.06062 8.92696 4.76608 8.62239 4.47166C8.43332 4.28885 8.24438 4.10593 8.05547 3.92297C7.96755 3.83788 7.87958 3.75283 7.79155 3.66784C7.67182 3.55224 7.55228 3.43645 7.43278 3.32062C7.39754 3.28667 7.36229 3.25273 7.32598 3.21776C7.02621 2.9265 7.02621 2.9265 7 2.66201C7.02223 2.40322 7.09568 2.28628 7.26236 2.08652C7.48059 1.98065 7.69436 1.98634 7.93156 2.02749Z" fill="white"/>
</svg>
