<svg width="30" height="30" viewBox="0 0 30 30" fill="none" xmlns="http://www.w3.org/2000/svg">
<path d="M15.7325 1.98853C16.0781 2.18728 16.2818 2.49763 16.4063 2.8711C16.4118 2.96237 16.4141 3.05385 16.4144 3.14529C16.4147 3.20197 16.4151 3.25866 16.4154 3.31706C16.4154 3.37947 16.4155 3.44188 16.4156 3.50619C16.4158 3.57237 16.4161 3.63856 16.4164 3.70676C16.4173 3.9297 16.4178 4.15264 16.4183 4.37558C16.4188 4.53494 16.4195 4.69429 16.4201 4.85364C16.4213 5.19731 16.4224 5.54098 16.4233 5.88465C16.4247 6.38154 16.4263 6.87843 16.428 7.37533C16.4308 8.18146 16.4334 8.9876 16.4357 9.79373C16.438 10.5769 16.4405 11.3601 16.4431 12.1433C16.4432 12.1915 16.4434 12.2398 16.4435 12.2895C16.4443 12.5316 16.4452 12.7737 16.446 13.0158C16.4526 15.0249 16.4589 17.0339 16.4649 19.043C16.4931 19.0164 16.5214 18.9897 16.5504 18.9623C16.6802 18.84 16.81 18.7178 16.9398 18.5955C16.9842 18.5536 17.0286 18.5118 17.0744 18.4687C17.4346 18.1294 17.7984 17.7943 18.1641 17.4609C18.2814 17.3536 18.3985 17.2461 18.5157 17.1387C18.5743 17.085 18.6328 17.0313 18.6914 16.9775C18.7204 16.951 18.7494 16.9244 18.7793 16.897C19.043 16.6553 19.043 16.6553 19.1309 16.5747C19.1895 16.521 19.2482 16.4672 19.3068 16.4135C19.4525 16.2799 19.5983 16.1463 19.7441 16.0128C19.8021 15.9596 19.8602 15.9065 19.9182 15.8533C19.947 15.8269 19.9758 15.8006 20.0054 15.7734C20.1921 15.6023 20.3783 15.4306 20.5641 15.2586C20.6604 15.1696 20.7569 15.0809 20.8535 14.9922C20.9686 14.8863 21.082 14.7793 21.195 14.6709C21.5984 14.2899 21.9314 14.0584 22.4964 14.0295C22.9108 14.0454 23.2379 14.1774 23.5479 14.4539C23.8747 14.8092 23.9384 15.1646 23.9278 15.6393C23.8486 16.3058 23.3405 16.7123 22.8628 17.1279C22.6243 17.336 22.3931 17.5511 22.1631 17.7686C21.8269 18.0851 21.4887 18.3992 21.1478 18.7106C20.8678 18.9667 20.5892 19.2245 20.3105 19.482C20.2165 19.5688 20.1224 19.6555 20.0283 19.7422C19.6878 20.056 19.3483 20.371 19.01 20.6873C18.6901 20.9864 18.3684 21.2835 18.0451 21.579C17.8898 21.7209 17.7353 21.8636 17.5809 22.0066C17.5159 22.0667 17.4508 22.1267 17.3855 22.1865C17.2415 22.3186 17.0993 22.4514 16.96 22.5886C16.3359 23.1902 15.6641 23.4589 14.7988 23.4499C13.8775 23.3954 13.2757 22.7996 12.6459 22.1921C12.4929 22.0456 12.3368 21.9029 12.1802 21.7603C11.6613 21.2857 11.1448 20.8086 10.6311 20.3284C10.3109 20.029 9.98898 19.7317 9.66549 19.436C9.38492 19.1794 9.10592 18.9211 8.82666 18.6631C8.6677 18.5162 8.50867 18.3694 8.34964 18.2227C8.28617 18.1641 8.22269 18.1055 8.15921 18.0469C8.11208 18.0034 8.11208 18.0034 8.064 17.959C7.96878 17.8711 7.87357 17.7832 7.77836 17.6953C7.73116 17.6518 7.73116 17.6518 7.68301 17.6073C7.61992 17.5491 7.55687 17.4908 7.49387 17.4324C7.32962 17.2804 7.16456 17.1294 6.9981 16.9798C6.96381 16.9488 6.92951 16.9177 6.89418 16.8858C6.82908 16.8269 6.76371 16.7682 6.69803 16.71C6.36811 16.4103 6.14484 16.094 6.09378 15.6445C6.08048 15.1384 6.19673 14.797 6.54148 14.4285C6.83198 14.157 7.12265 14.0628 7.51835 14.0405C8.09282 14.0624 8.4859 14.3526 8.87699 14.7473C8.96407 14.8323 9.0512 14.9172 9.13837 15.0021C9.17944 15.0426 9.22051 15.0831 9.26283 15.1248C9.39687 15.2557 9.53499 15.3812 9.67533 15.5054C9.92058 15.7238 10.1607 15.9474 10.4004 16.1719C10.6903 16.4434 10.9823 16.7119 11.2784 16.9766C11.5192 17.1935 11.7565 17.414 11.9944 17.634C12.178 17.8038 12.3621 17.9731 12.5464 18.1421C12.5973 18.1888 12.6482 18.2355 12.7007 18.2835C12.875 18.443 13.0499 18.6019 13.2248 18.7608C13.2547 18.788 13.2846 18.8152 13.3154 18.8432C13.3886 18.9098 13.4619 18.9764 13.5352 19.043C13.5352 19.009 13.5352 18.975 13.5352 18.94C13.536 16.9241 13.5383 14.9082 13.5426 12.8923C13.5431 12.6501 13.5436 12.408 13.5441 12.1658C13.5442 12.1176 13.5443 12.0694 13.5444 12.0197C13.546 11.2396 13.5465 10.4594 13.5467 9.6793C13.5469 8.87853 13.5481 8.07776 13.5505 7.277C13.5518 6.78306 13.5524 6.28915 13.5518 5.79521C13.5515 5.45629 13.5523 5.11737 13.5539 4.77845C13.5548 4.58304 13.555 4.38767 13.5543 4.19225C13.5536 3.97998 13.5548 3.76778 13.5563 3.55551C13.5557 3.49429 13.5551 3.43307 13.5544 3.37C13.5602 2.95094 13.657 2.63778 13.8868 2.28516C14.0245 2.1531 14.0245 2.1531 14.1578 2.07642C14.202 2.04976 14.2463 2.0231 14.2919 1.99563C14.7215 1.77761 15.2965 1.79545 15.7325 1.98853Z" fill="white"/>
<path d="M4.0135 18.8635C4.35917 19.0623 4.56284 19.3726 4.68733 19.7461C4.68733 21.583 4.68733 23.4199 4.68733 25.3125C11.4936 25.3125 18.2998 25.3125 25.3123 25.3125C25.3123 23.4756 25.3123 21.6387 25.3123 19.7461C25.6423 19.0861 25.6423 19.0861 25.8763 18.9514C25.9206 18.9248 25.9648 18.8981 26.0104 18.8706C26.3981 18.6739 26.8872 18.6841 27.3006 18.7969C27.6766 18.9635 27.8819 19.207 28.0662 19.5703C28.1216 19.7365 28.1325 19.8398 28.1335 20.012C28.1341 20.0938 28.1341 20.0938 28.1347 20.1773C28.1349 20.237 28.135 20.2967 28.1352 20.3582C28.1356 20.4212 28.136 20.4842 28.1364 20.5491C28.1375 20.7582 28.1382 20.9671 28.1388 21.1762C28.139 21.2476 28.1393 21.319 28.1395 21.3926C28.1407 21.771 28.1416 22.1494 28.1421 22.5278C28.1427 22.9178 28.1448 23.3078 28.1471 23.6978C28.1487 23.9983 28.1491 24.2988 28.1493 24.5993C28.1496 24.7431 28.1503 24.8868 28.1514 25.0305C28.1528 25.2323 28.1528 25.434 28.1524 25.6358C28.1535 25.724 28.1535 25.724 28.1546 25.8139C28.1499 26.4686 27.9338 27.0067 27.4803 27.4805C27.021 27.9004 26.4915 28.1318 25.8706 28.133C25.8134 28.1333 25.8134 28.1333 25.7551 28.1335C25.6267 28.134 25.4983 28.134 25.37 28.134C25.2772 28.1343 25.1845 28.1345 25.0917 28.1348C24.8364 28.1355 24.5811 28.1358 24.3258 28.1361C24.0506 28.1365 23.7754 28.1371 23.5001 28.1378C22.8353 28.1392 22.1704 28.1401 21.5055 28.1408C21.3177 28.141 21.1299 28.1413 20.9421 28.1415C19.7758 28.143 18.6095 28.1443 17.4432 28.145C17.173 28.1452 16.9029 28.1453 16.6327 28.1455C16.5656 28.1456 16.4984 28.1456 16.4292 28.1457C15.3417 28.1464 14.2542 28.1483 13.1667 28.1508C12.0501 28.1533 10.9335 28.1546 9.81686 28.155C9.18996 28.1552 8.56307 28.1558 7.93617 28.1578C7.40222 28.1594 6.86827 28.1601 6.33432 28.1594C6.062 28.1591 5.7897 28.1593 5.51738 28.1607C5.26775 28.162 5.01816 28.162 4.76853 28.1609C4.67854 28.1607 4.58855 28.161 4.49857 28.1619C3.76175 28.1687 3.15563 28.0214 2.58001 27.5398C2.08989 27.0553 1.85797 26.5176 1.8497 25.833C1.84988 25.7745 1.85005 25.7159 1.85022 25.6556C1.84973 25.5925 1.84923 25.5293 1.84872 25.4643C1.84736 25.2569 1.84729 25.0495 1.84736 24.8422C1.84695 24.6972 1.8465 24.5522 1.84601 24.4072C1.84523 24.1039 1.84513 23.8005 1.84548 23.4972C1.84582 23.1094 1.84403 22.7216 1.84166 22.3338C1.84014 22.0346 1.83998 21.7354 1.84019 21.4361C1.84009 21.2932 1.83953 21.1502 1.83848 21.0073C1.83718 20.807 1.83775 20.6069 1.83878 20.4067C1.838 20.3482 1.83723 20.2898 1.83643 20.2296C1.84133 19.8166 1.94275 19.5079 2.1678 19.1602C2.30559 19.0281 2.30559 19.0281 2.43879 18.9514C2.50519 18.9114 2.50519 18.9114 2.57292 18.8706C3.00251 18.6526 3.57757 18.6704 4.0135 18.8635Z" fill="white"/>
</svg>
